v 2493.97 -2389.37 440.396
v 2545.4 -2387.4 440.396
l 1 2
v 2521.66 -2383.43 440.396
v 2493.97 -2389.37 440.396
l 3 4
v 2545.4 -2387.4 440.396
v 2521.66 -2383.43 440.396
l 5 6
v 2460.32 -2446.74 440.396
v 2493.97 -2389.37 440.396
l 7 8
v 2493.97 -2389.37 440.396
v 2474.17 -2415.09 440.396
l 9 10
v 2474.17 -2415.09 440.396
v 2460.32 -2446.74 440.396
l 11 12
v 2484.07 -2498.18 440.396
v 2460.32 -2446.74 440.396
l 13 14
v 2460.32 -2446.74 440.396
v 2464.29 -2476.42 440.396
l 15 16
v 2464.29 -2476.42 440.396
v 2484.07 -2498.18 440.396
l 17 18
v 2551.33 -2494.23 440.396
v 2484.07 -2498.18 440.396
l 19 20
v 2484.07 -2498.18 440.396
v 2525.61 -2504.12 440.396
l 21 22
v 2525.61 -2504.12 440.396
v 2551.33 -2494.23 440.396
l 23 24
v 2569.14 -2423.01 440.396
v 2551.33 -2494.23 440.396
l 25 26
v 2551.33 -2494.23 440.396
v 2567.16 -2458.62 440.396
l 27 28
v 2567.16 -2458.62 440.396
v 2569.14 -2423.01 440.396
l 29 30
v 2545.4 -2387.4 440.396
v 2569.14 -2423.01 440.396
l 31 32
v 2569.14 -2423.01 440.396
v 2557.27 -2403.23 440.396
l 33 34
v 2557.27 -2403.23 440.396
v 2545.4 -2387.4 440.396
l 35 36
v 2460.32 -2446.74 440.396
v 2545.4 -2387.4 440.396
l 37 38
v 2551.33 -2494.23 440.396
v 2460.32 -2446.74 440.396
l 39 40
v 2545.4 -2387.4 440.396
v 2551.33 -2494.23 440.396
l 41 42
v 2521.66 -2383.43 440.396
v 2493.97 -2389.37 398.608
l 43 44
v 2493.97 -2389.37 398.608
v 2493.97 -2389.37 440.396
l 45 46
v 2521.66 -2383.43 440.396
v 2521.66 -2383.43 406.244
l 47 48
v 2493.97 -2389.37 440.396
v 2474.17 -2415.09 388.798
l 49 50
v 2474.17 -2415.09 388.798
v 2474.17 -2415.09 440.396
l 51 52
v 2474.17 -2415.09 440.396
v 2460.32 -2446.74 377.319
l 53 54
v 2460.32 -2446.74 377.319
v 2460.32 -2446.74 440.396
l 55 56
v 2460.32 -2446.74 440.396
v 2464.29 -2476.42 379.856
l 57 58
v 2464.29 -2476.42 379.856
v 2464.29 -2476.42 440.396
l 59 60
v 2464.29 -2476.42 440.396
v 2484.07 -2498.18 388.052
l 61 62
v 2484.07 -2498.18 388.052
v 2484.07 -2498.18 440.396
l 63 64
v 2484.07 -2498.18 440.396
v 2525.61 -2504.12 402.741
l 65 66
v 2525.61 -2504.12 402.741
v 2525.61 -2504.12 440.396
l 67 68
v 2525.61 -2504.12 440.396
v 2551.33 -2494.23 412.376
l 69 70
v 2551.33 -2494.23 412.376
v 2551.33 -2494.23 440.396
l 71 72
v 2551.33 -2494.23 440.396
v 2567.16 -2458.62 420.396
l 73 74
v 2567.16 -2458.62 420.396
v 2567.16 -2458.62 440.396
l 75 76
v 2567.16 -2458.62 440.396
v 2569.14 -2423.01 420.315
l 77 78
v 2569.14 -2423.01 420.315
v 2569.14 -2423.01 440.396
l 79 80
v 2569.14 -2423.01 440.396
v 2557.27 -2403.23 415.48
l 81 82
v 2557.27 -2403.23 415.48
v 2557.27 -2403.23 440.396
l 83 84
v 2557.27 -2403.23 440.396
v 2545.4 -2387.4 412.049
l 85 86
v 2545.4 -2387.4 412.049
v 2545.4 -2387.4 440.396
l 87 88
v 2545.4 -2387.4 440.396
v 2521.66 -2383.43 406.244
l 89 90
v 2748.04 -2809.95 462.579
v 2704.3 -2773.57 462.579
l 91 92
v 2704.3 -2773.57 462.579
v 2708.49 -2808.19 462.579
l 93 94
v 2708.49 -2808.19 462.579
v 2748.04 -2809.95 462.579
l 95 96
v 2748.04 -2809.95 462.579
v 2752 -2786.09 462.579
l 97 98
v 2752 -2786.09 462.579
v 2704.3 -2773.57 462.579
l 99 100
v 2704.3 -2773.57 462.579
v 2708.49 -2808.19 442.579
l 101 102
v 2708.49 -2808.19 442.579
v 2708.49 -2808.19 462.579
l 103 104
v 2704.3 -2773.57 462.579
v 2704.3 -2773.57 438.152
l 105 106
v 2708.49 -2808.19 462.579
v 2748.04 -2809.95 437.995
l 107 108
v 2748.04 -2809.95 437.995
v 2748.04 -2809.95 462.579
l 109 110
v 2748.04 -2809.95 462.579
v 2752 -2786.09 436.543
l 111 112
v 2752 -2786.09 436.543
v 2752 -2786.09 462.579
l 113 114
v 2752 -2786.09 462.579
v 2704.3 -2773.57 438.152
l 115 116
v -3677.75 -1258.14 571.191
v -3547.7 -1223.45 561.464
l 117 118
v -3542.98 -1293.13 659.892
v -3677.75 -1258.14 571.191
l 119 120
v -3439.57 -1259.88 644.225
v -3547.7 -1223.45 561.464
l 121 122
v -3542.98 -1293.13 659.892
v -3620.72 -1344.87 654.729
l 123 124
v -3620.72 -1344.87 654.729
v -3757.77 -1273.67 566.754
l 125 126
v -1982.99 -438.082 524.023
v -1890.89 -359.121 524.023
l 127 128
v -1890.89 -359.121 524.023
v -1997.29 -392.51 524.023
l 129 130
v -1997.29 -392.51 524.023
v -1982.99 -438.082 524.023
l 131 132
v -1982.99 -438.082 524.023
v -1876.58 -404.681 524.023
l 133 134
v -1876.58 -404.681 524.023
v -1890.89 -359.121 524.023
l 135 136
v -1890.89 -359.121 524.023
v -1997.29 -392.51 501.887
l 137 138
v -1997.29 -392.51 501.887
v -1997.29 -392.51 524.023
l 139 140
v -1890.89 -359.121 524.023
v -1890.89 -359.121 521.023
l 141 142
v -1997.29 -392.51 524.023
v -1982.99 -438.082 503.571
l 143 144
v -1982.99 -438.082 503.571
v -1982.99 -438.082 524.023
l 145 146
v -1982.99 -438.082 524.023
v -1876.58 -404.681 514.132
l 147 148
v -1876.58 -404.681 514.132
v -1876.58 -404.681 524.023
l 149 150
v -1876.58 -404.681 524.023
v -1890.89 -359.121 521.023
l 151 152
v 1653.36 1065.35 331.799
v 1662.25 1052.47 331.246
l 153 154
v -3508 -33.8805 450.592
v -3566.04 11.6543 450.592
l 155 156
v -3566.04 11.6543 450.592
v -3525.4 -46.1153 450.592
l 157 158
v -3525.4 -46.1153 450.592
v -3508 -33.8805 450.592
l 159 160
v -3508 -33.8805 450.592
v -3548.63 23.9019 450.592
l 161 162
v -3548.63 23.9019 450.592
v -3566.04 11.6543 450.592
l 163 164
v -3566.04 11.6543 450.592
v -3525.4 -46.1153 426.563
l 165 166
v -3525.4 -46.1153 426.563
v -3525.4 -46.1153 450.592
l 167 168
v -3566.04 11.6543 450.592
v -3566.04 11.6543 430.592
l 169 170
v -3525.4 -46.1153 450.592
v -3508 -33.8805 421.851
l 171 172
v -3508 -33.8805 421.851
v -3508 -33.8805 450.592
l 173 174
v -3508 -33.8805 450.592
v -3548.63 23.9019 423.863
l 175 176
v -3548.63 23.9019 423.863
v -3548.63 23.9019 450.592
l 177 178
v -3548.63 23.9019 450.592
v -3566.04 11.6543 430.592
l 179 180
v -4235.94 -73.0547 468.766
v -4247.36 23.0957 468.766
l 181 182
v -4247.36 23.0957 468.766
v -4289.15 -15.6052 468.766
l 183 184
v -4289.15 -15.6052 468.766
v -4235.94 -73.0547 468.766
l 185 186
v -4235.94 -73.0547 468.766
v -4194.17 -34.3669 468.766
l 187 188
v -4194.17 -34.3669 468.766
v -4247.36 23.0957 468.766
l 189 190
v -4247.36 23.0957 468.766
v -4289.15 -15.6052 448.766
l 191 192
v -4289.15 -15.6052 448.766
v -4289.15 -15.6052 468.766
l 193 194
v -4247.36 23.0957 468.766
v -4247.36 23.0957 441.772
l 195 196
v -4289.15 -15.6052 468.766
v -4235.94 -73.0547 427.986
l 197 198
v -4235.94 -73.0547 427.986
v -4235.94 -73.0547 468.766
l 199 200
v -4235.94 -73.0547 468.766
v -4194.17 -34.3669 424.568
l 201 202
v -4194.17 -34.3669 424.568
v -4194.17 -34.3669 468.766
l 203 204
v -4194.17 -34.3669 468.766
v -4247.36 23.0957 441.772
l 205 206
v -3885.18 1699.16 553.634
v -3863.76 1731.33 553.634
l 207 208
v -3887.4 1718.14 553.634
v -3885.18 1699.16 553.634
l 209 210
v -3863.76 1731.33 553.634
v -3887.4 1718.14 553.634
l 211 212
v -3876.44 1673.72 553.634
v -3885.18 1699.16 553.634
l 213 214
v -3885.18 1699.16 553.634
v -3881.21 1685.03 553.634
l 215 216
v -3881.21 1685.03 553.634
v -3876.44 1673.72 553.634
l 217 218
v -3887.4 1718.14 553.634
v -3885.18 1699.16 533.581
l 219 220
v -3885.18 1699.16 533.581
v -3885.18 1699.16 553.634
l 221 222
v -3887.4 1718.14 553.634
v -3887.4 1718.14 533.634
l 223 224
v -3885.18 1699.16 553.634
v -3881.21 1685.03 533.161
l 225 226
v -3881.21 1685.03 533.161
v -3881.21 1685.03 553.634
l 227 228
v -3881.21 1685.03 553.634
v -3876.44 1673.72 532.776
l 229 230
v -3876.44 1673.72 532.776
v -3876.44 1673.72 553.634
l 231 232
v -3863.76 1731.33 529.899
v -3863.76 1731.33 553.634
l 233 234
v -3863.76 1731.33 553.634
v -3887.4 1718.14 533.634
l 235 236
v 1775.59 -619.574 549.503
v 1763.72 -607.711 549.503
l 237 238
v 1763.72 -607.711 529.503
v 1763.72 -607.711 549.503
l 239 240
v 1775.59 -619.574 549.503
v 1775.59 -619.574 522.929
l 241 242
v 1225.91 158.575 563.313
v 1230.87 149.348 563.313
l 243 244
v 1225.91 158.575 541.146
v 1225.91 158.575 563.313
l 245 246
v 1230.87 149.348 543.313
v 1230.87 149.348 563.313
l 247 248
v 1900 1795.29 440.608
v 1875.4 1789.97 440.608
l 249 250
v 1875.4 1789.97 440.608
v 1875.4 1789.97 420.608
l 251 252
v 1900 1795.29 416.009
v 1900 1795.29 440.608
l 253 254
v 2521.16 -2774.2 451.166
v 2485.35 -2727.42 451.166
l 255 256
v 2485.35 -2727.42 451.166
v 2479.63 -2768.39 451.166
l 257 258
v 2479.63 -2768.39 451.166
v 2521.16 -2774.2 451.166
l 259 260
v 2485.35 -2727.42 451.166
v 2526.89 -2733.23 451.166
l 261 262
v 2521.16 -2774.2 451.166
v 2526.89 -2733.23 451.166
l 263 264
v 2485.35 -2727.42 414.098
v 2485.35 -2727.42 451.166
l 265 266
v 2485.35 -2727.42 451.166
v 2479.63 -2768.39 424.065
l 267 268
v 2479.63 -2768.39 424.065
v 2479.63 -2768.39 451.166
l 269 270
v 2479.63 -2768.39 451.166
v 2521.16 -2774.2 431.166
l 271 272
v 2521.16 -2774.2 431.166
v 2521.16 -2774.2 451.166
l 273 274
v 2521.16 -2774.2 451.166
v 2526.89 -2733.23 419.43
l 275 276
v 2526.89 -2733.23 419.43
v 2526.89 -2733.23 451.166
l 277 278
v 1406.91 -898.386 510.554
v 1409.96 -907.216 510.554
l 279 280
v 1409.96 -907.216 485.756
v 1409.96 -907.216 510.554
l 281 282
v 1406.91 -898.386 510.554
v 1406.91 -898.386 490.554
l 283 284
v -1318.29 2027.35 586.794
v -1312.76 2021.39 586.794
l 285 286
v -1312.76 2021.39 586.794
v -1307.47 2015.71 586.794
l 287 288
v -1312.76 2021.39 564.523
v -1312.76 2021.39 586.794
l 289 290
v -1318.29 2027.35 586.794
v -1318.29 2027.35 566.794
l 291 292
v -1307.47 2015.71 562.462
v -1307.47 2015.71 586.794
l 293 294
v -1342.6 1796.64 566.79
v -1327.4 1793.9 566.79
l 295 296
v -1327.4 1793.9 540.763
v -1327.4 1793.9 566.79
l 297 298
v -1342.6 1796.64 566.79
v -1342.6 1796.64 546.79
l 299 300
v 4913.09 1493.26 656.742
v 4888.45 1504.64 649.345
l 301 302
v -2320.06 2487.99 652.778
v -2293.87 2484.61 656.262
l 303 304
